<?xml version="1.0" encoding="UTF-8"?>
<svg width="200px" height="200px" viewBox="0 0 128 128" xmlns="http://www.w3.org/2000/svg">
  <g>
    <path d="M98.25 57.964c.02.136.03.273.03.408v.07c0 1.77-.27 3.5-.77 5.13-.01.03-.01.07-.02.1-6.99 22.11-36.28 30.74-65.5 19.23-27.08-10.7-37.17-37.83-22.55-60.6.03-.05.06-.11.1-.16 4.8-7.16 12.07-11.34 20.1-11.34 9.7 0 18.02 6.37 20.8 15.24h7.6c-3.14-12.19-14.04-21.15-27.5-21.15-8.8 0-17.05 3.6-22.96 10.13-20.09 22.4-8.31 56.59 23.89 68.92 16.02 6.18 33.21 4.3 46.16-5.17 13.26-9.69 20.14-26.12 17.04-42.72-.02-.11-.05-.23-.06-.34-.12-.61-.25-1.21-.41-1.81z" fill="#006c5b"/>
    <path d="M97.75 57.964c.12.6.25 1.2.41 1.8.01.12.04.23.06.34 3.1 16.6-3.78 33.03-17.04 42.72-12.95 9.47-30.14 11.35-46.16 5.17-32.2-12.33-43.98-46.52-23.89-68.92 5.91-6.53 14.16-10.13 22.96-10.13 13.46 0 24.36 8.96 27.5 21.15h-7.6c-2.78-8.87-11.1-15.24-20.8-15.24-8.03 0-15.3 4.18-20.1 11.34-.04.05-.07.11-.1.16-14.62 22.77-4.53 49.9 22.55 60.6 29.22 11.51 58.51 2.88 65.5-19.23.01-.03.01-.07.02-.1.5-1.64.77-3.36.77-5.13v-.07c0-.14-.01-.27-.03-.4z" fill="#4caf50">
      <animateTransform 
        attributeName="transform" 
        type="rotate" 
        from="0 64 64" 
        to="360 64 64" 
        dur="2000ms" 
        repeatCount="indefinite">
      </animateTransform>
    </path>
  </g>
</svg>
